<?xml version="1.0" encoding="UTF-8"?>
<svg width="27px" height="17px" viewBox="0 0 27 17" version="1.1" xmlns="http://www.w3.org/2000/svg" xmlns:xlink="http://www.w3.org/1999/xlink">
    <!-- Generator: Sketch 50.2 (55047) - http://www.bohemiancoding.com/sketch -->
    <title>Fill 110</title>
    <desc>Created with Sketch.</desc>
    <defs></defs>
    <g id="Page-1" stroke="none" stroke-width="1" fill="none" fill-rule="evenodd">
        <g id="Desktop" transform="translate(-18.000000, -25.000000)" fill="#273469">
            <path d="M43.5751442,39.7550425 C41.5958492,37.6706406 37.7679862,35.1855186 30.7764045,35.1855186 C30.5044403,35.1855186 30.2837157,35.4062432 30.2837157,35.6782073 L30.2837157,41.5595971 C30.0413129,41.5326634 29.7167952,41.4512056 29.4113282,41.222598 L18.6168463,34.5811537 C18.2305783,34.3256125 18,33.895331 18,33.4295759 C18,33.0163743 18.1898494,32.7063088 18.6168463,32.4244909 L29.4139559,25.3153208 C29.7792025,25.0873701 30.0774434,25.015766 30.2837157,25 L30.2837157,31.0784652 C30.2837157,31.3504294 30.5044403,31.571154 30.7764045,31.571154 C41.1688523,31.571154 44.195932,37.2843726 45,41.5832461 C44.6347534,41.0038442 44.1683414,40.3797718 43.5751442,39.7550425 L43.5751442,39.7550425 Z" id="Fill-110"></path>
        </g>
    </g>
</svg>