<?xml version="1.0" encoding="UTF-8"?>
<svg width="25px" height="22px" viewBox="0 0 25 22" version="1.1" xmlns="http://www.w3.org/2000/svg" xmlns:xlink="http://www.w3.org/1999/xlink">
    <!-- Generator: Sketch 50.2 (55047) - http://www.bohemiancoding.com/sketch -->
    <title>Group 2 Copy</title>
    <desc>Created with Sketch.</desc>
    <defs></defs>
    <g id="Page-1" stroke="none" stroke-width="1" fill="none" fill-rule="evenodd">
        <g id="Desktop" transform="translate(-889.000000, -497.000000)" fill="#273469">
            <g id="Group-2-Copy" transform="translate(889.000000, 497.000000)">
                <path d="M18.5473744,0.0965507872 C16.0865068,0.0965507872 13.8334589,1.57778116 12.496466,4.01863215 C11.1329804,1.48476272 8.92938535,0 6.46498538,0 C3.28057557,0 0.0367046126,2.71284163 0.000203705211,7.89832537 C-0.0298212347,12.0935748 3.26526874,14.0799306 5.9133507,15.6759623 C6.38138652,15.9573725 6.83705914,16.231718 7.25858575,16.5084184 C10.0197028,18.3163908 11.8423932,20.7307492 12.0873026,21.5732137 C12.1420539,21.7627829 12.3145501,21.8917135 12.5111841,21.8917135 L12.51766,21.8917135 C12.7160601,21.8887699 12.8885563,21.7533633 12.9391866,21.5608505 C13.1534823,20.7313379 15.1834037,18.2698816 17.7555402,16.4501347 C18.2606657,16.0921903 18.8134778,15.7477866 19.3992585,15.3833663 C22.0385096,13.7414142 25.0286404,11.8804566 24.9997929,7.8506387 C24.963292,2.52268368 21.6299349,0.0965507872 18.5473744,0.0965507872 L18.5473744,0.0965507872 Z" id="Fill-84"></path>
            </g>
        </g>
    </g>
</svg>