<?xml version="1.0" encoding="UTF-8"?>
<svg width="25px" height="22px" viewBox="0 0 25 22" version="1.1" xmlns="http://www.w3.org/2000/svg" xmlns:xlink="http://www.w3.org/1999/xlink">
    <!-- Generator: Sketch 50.2 (55047) - http://www.bohemiancoding.com/sketch -->
    <title>Group 2</title>
    <desc>Created with Sketch.</desc>
    <defs></defs>
    <g id="Page-1" stroke="none" stroke-width="1" fill="none" fill-rule="evenodd">
        <g id="Desktop" transform="translate(-889.000000, -452.000000)" fill="#273469">
            <g id="Group-2" transform="translate(889.000000, 452.000000)">
                <path d="M18.5473744,0.0965507872 C16.0865068,0.0965507872 13.8334589,1.57778116 12.496466,4.01863215 C11.1329804,1.48476272 8.92938535,0 6.46498538,0 C3.28057557,0 0.0367046126,2.71284163 0.000203705211,7.89832537 C-0.0298212347,12.0935748 3.26526874,14.0799306 5.9133507,15.6759623 C6.38138652,15.9573725 6.83705914,16.231718 7.25858575,16.5084184 C10.0197028,18.3163908 11.8423932,20.7307492 12.0873026,21.5732137 C12.1420539,21.7627829 12.3145501,21.8917135 12.5111841,21.8917135 L12.51766,21.8917135 C12.7160601,21.8887699 12.8885563,21.7533633 12.9391866,21.5608505 C13.1534823,20.7313379 15.1834037,18.2698816 17.7555402,16.4501347 C18.2606657,16.0921903 18.8134778,15.7477866 19.3992585,15.3833663 C22.0385096,13.7414142 25.0286404,11.8804566 24.9997929,7.8506387 C24.963292,2.52268368 21.6299349,0.0965507872 18.5473744,0.0965507872 L18.5473744,0.0965507872 Z M18.9329889,14.6333315 C18.3354337,15.0054053 17.7708471,15.3568737 17.2451163,15.7295362 C15.3052696,17.1018525 13.3701328,19.0587722 12.5088292,20.4393307 C11.7246484,19.1541455 10.0126381,17.2560983 7.74310586,15.7695694 C7.31157094,15.4869818 6.84647873,15.2073377 6.37020076,14.9200402 C3.78570103,13.3622757 0.856208855,11.5966915 0.883878898,7.90480134 C0.917436183,3.0802056 3.79983042,0.883086468 6.46498538,0.883086468 C8.82694732,0.883086468 10.9292818,2.49972343 12.0890687,5.20726654 C12.1585382,5.36916573 12.3180825,5.47454738 12.4952885,5.47454738 C12.6730832,5.47454738 12.8320388,5.368577 12.9009196,5.20608909 C14.0106649,2.59862911 16.1748155,0.979637255 18.5473744,0.979637255 C21.2072309,0.979637255 24.0843266,3.13142462 24.1161177,7.85711467 C24.1420216,11.3918154 21.4939396,13.0396548 18.9329889,14.6333315 L18.9329889,14.6333315 Z" id="Fill-84"></path>
            </g>
        </g>
    </g>
</svg>