<?xml version="1.0" encoding="UTF-8"?>
<svg width="21px" height="18px" viewBox="0 0 21 18" version="1.1" xmlns="http://www.w3.org/2000/svg" xmlns:xlink="http://www.w3.org/1999/xlink">
    <!-- Generator: Sketch 50.2 (55047) - http://www.bohemiancoding.com/sketch -->
    <title>Group 6</title>
    <desc>Created with Sketch.</desc>
    <defs></defs>
    <g id="Page-1" stroke="none" stroke-width="1" fill="none" fill-rule="evenodd">
        <g id="Desktop" transform="translate(-858.000000, -964.000000)" fill="#273469">
            <g id="Group-6" transform="translate(858.000000, 964.000000)">
                <path d="M10.2016479,0 C9.86997523,0 9.50480502,0.174912517 9.14623995,0.505841184 L5.0953983,4.24974428 C4.90526446,4.42611036 4.71465882,4.65092867 4.52829934,4.91886945 L1.54654774,4.91886945 C0.694012121,4.91886945 0,5.63208614 0,6.50955585 L0,11.4914132 C0,12.3664603 0.694012121,13.0777389 1.54654774,13.0777389 L4.52735575,13.0777389 C4.71324343,13.3476178 4.90384907,13.5734051 5.0958701,13.7492867 L9.14671175,17.4951279 C9.50480502,17.8250875 9.86997523,18 10.2016479,18 C10.5215257,18 10.7975264,17.8415612 10.9772808,17.5552086 C11.1348607,17.3042261 11.215066,16.9665141 11.215066,16.5507941 L11.215066,1.44920592 C11.215066,0.380834455 10.6913723,0 10.2016479,0 L10.2016479,0 Z M10.5073718,16.5507941 C10.5073718,16.909825 10.4295255,17.0871602 10.3828176,17.1608075 C10.3205405,17.2596501 10.2563763,17.2732167 10.2016479,17.2732167 C10.1304067,17.2732167 9.93178052,17.2422073 9.61945148,16.9544011 L5.56860983,13.2085599 C5.38366574,13.0389771 5.19589088,12.8054374 5.0100032,12.5147241 C4.94442354,12.4129744 4.83307965,12.3509556 4.71418702,12.3509556 L1.54654774,12.3509556 C1.08418753,12.3509556 0.707694209,11.9657604 0.707694209,11.4914132 L0.707694209,6.50955585 C0.707694209,6.032786 1.08418753,5.64565276 1.54654774,5.64565276 L4.71418702,5.64565276 C4.83260785,5.64565276 4.94300815,5.58460296 5.00858781,5.48382234 C5.19683447,5.19310902 5.38602472,4.95956931 5.56955342,4.7890175 L9.61945148,1.04608345 C9.93178052,0.758277254 10.1308785,0.726783311 10.2016479,0.726783311 C10.4927461,0.726783311 10.5073718,1.32855989 10.5073718,1.44920592 L10.5073718,16.5507941 L10.5073718,16.5507941 Z M17.7475554,9.02810229 L20.8963228,5.79391655 C21.0345591,5.65195155 21.0345591,5.42228802 20.8963228,5.28032301 C20.7580865,5.13835801 20.5344552,5.13835801 20.3962189,5.28032301 L17.2474515,8.51450875 L14.098684,5.28032301 C13.9604478,5.13835801 13.7368164,5.13835801 13.5985801,5.28032301 C13.4603438,5.42228802 13.4603438,5.65195155 13.5985801,5.79391655 L16.7468758,9.02810229 L13.5985801,12.2627725 C13.4603438,12.4047376 13.4603438,12.6344011 13.5985801,12.7763661 C13.6674624,12.8475908 13.7580472,12.882961 13.8486321,12.882961 C13.9392169,12.882961 14.0298018,12.8475908 14.098684,12.7763661 L17.2474515,9.54266487 L20.3962189,12.7763661 C20.4651011,12.8475908 20.555686,12.882961 20.6462708,12.882961 C20.7368557,12.882961 20.8274406,12.8475908 20.8963228,12.7763661 C21.0345591,12.6344011 21.0345591,12.4047376 20.8963228,12.2627725 L17.7475554,9.02810229 L17.7475554,9.02810229 Z" id="Fill-129"></path>
            </g>
        </g>
    </g>
</svg>