<?xml version="1.0" encoding="UTF-8"?>
<svg width="21px" height="13px" viewBox="0 0 21 13" version="1.1" xmlns="http://www.w3.org/2000/svg" xmlns:xlink="http://www.w3.org/1999/xlink">
    <!-- Generator: Sketch 50.2 (55047) - http://www.bohemiancoding.com/sketch -->
    <title>Fill 121</title>
    <desc>Created with Sketch.</desc>
    <defs></defs>
    <g id="Page-1" stroke="none" stroke-width="1" fill="none" fill-rule="evenodd">
        <g id="Desktop" transform="translate(-565.000000, -987.000000)" fill="#273469">
            <path d="M585.62908,987.000003 C585.424827,987.000003 585.25816,987.166175 585.25816,987.370923 L585.25816,992.543029 L575.64095,987.048964 C575.526212,986.983188 575.385757,986.983682 575.27003,987.050448 C575.156775,987.116719 575.086053,987.238875 575.086053,987.370923 L575.086053,992.494068 L565.554402,987.048964 C565.440158,986.983188 565.299209,986.983682 565.184471,987.050448 C565.070227,987.116719 565,987.238875 565,987.370923 L565,998.899607 C565,999.031655 565.070227,999.153811 565.184471,999.220082 C565.242334,999.253712 565.306133,999.270527 565.37092,999.270527 C565.433729,999.270527 565.497527,999.254207 565.554402,999.221566 L575.086053,993.774978 L575.086053,998.899607 C575.086053,999.031655 575.156775,999.153811 575.270524,999.220082 C575.328882,999.253712 575.392681,999.270527 575.456973,999.270527 C575.519782,999.270527 575.583581,999.254207 575.64095,999.221566 L585.25816,993.725522 L585.25816,998.899607 C585.25816,999.104355 585.424827,999.270527 585.62908,999.270527 C585.834322,999.270527 586,999.104355 586,998.899607 L586,987.370923 C586,987.166175 585.834322,987.000003 585.62908,987.000003 L585.62908,987.000003 Z" id="Fill-121"></path>
        </g>
    </g>
</svg>