<?xml version="1.0" encoding="UTF-8"?>
<svg width="10px" height="26px" viewBox="0 0 10 26" version="1.1" xmlns="http://www.w3.org/2000/svg" xmlns:xlink="http://www.w3.org/1999/xlink">
    <!-- Generator: Sketch 50.2 (55047) - http://www.bohemiancoding.com/sketch -->
    <title>Fill 126</title>
    <desc>Created with Sketch.</desc>
    <defs></defs>
    <g id="Page-1" stroke="none" stroke-width="1" fill="none" fill-rule="evenodd">
        <g id="Desktop" transform="translate(-394.000000, -983.000000)" fill="#273469">
            <path d="M395.51,983 C394.67648,983 394,983.228198 394,983.509371 L394,1007.89263 C394,1008.1738 394.67648,1008.402 395.51,1008.402 C396.34352,1008.402 397.02,1008.1738 397.02,1007.89263 L397.02,983.509371 C397.02,983.228198 396.34352,983 395.51,983 L395.51,983 Z M402.186837,983 C401.353317,983 400.676837,983.228198 400.676837,983.509371 L400.676837,1007.89263 C400.676837,1008.1738 401.353317,1008.402 402.186837,1008.402 C403.020357,1008.402 403.696837,1008.1738 403.696837,1007.89263 L403.696837,983.509371 C403.696837,983.228198 403.020357,983 402.186837,983 L402.186837,983 Z" id="Fill-126"></path>
        </g>
    </g>
</svg>