<?xml version="1.0" encoding="UTF-8"?>
<svg width="21px" height="13px" viewBox="0 0 21 13" version="1.1" xmlns="http://www.w3.org/2000/svg" xmlns:xlink="http://www.w3.org/1999/xlink">
    <!-- Generator: Sketch 50.2 (55047) - http://www.bohemiancoding.com/sketch -->
    <title>Fill 121</title>
    <desc>Created with Sketch.</desc>
    <defs></defs>
    <g id="Page-1" stroke="none" stroke-width="1" fill="none" fill-rule="evenodd">
        <g id="Desktop" transform="translate(-464.000000, -987.000000)" fill="#273469">
            <path d="M484.62908,987.000003 C484.424827,987.000003 484.25816,987.166175 484.25816,987.370923 L484.25816,992.543029 L474.64095,987.048964 C474.526212,986.983188 474.385757,986.983682 474.27003,987.050448 C474.156775,987.116719 474.086053,987.238875 474.086053,987.370923 L474.086053,992.494068 L464.554402,987.048964 C464.440158,986.983188 464.299209,986.983682 464.184471,987.050448 C464.070227,987.116719 464,987.238875 464,987.370923 L464,998.899607 C464,999.031655 464.070227,999.153811 464.184471,999.220082 C464.242334,999.253712 464.306133,999.270527 464.37092,999.270527 C464.433729,999.270527 464.497527,999.254207 464.554402,999.221566 L474.086053,993.774978 L474.086053,998.899607 C474.086053,999.031655 474.156775,999.153811 474.270524,999.220082 C474.328882,999.253712 474.392681,999.270527 474.456973,999.270527 C474.519782,999.270527 474.583581,999.254207 474.64095,999.221566 L484.25816,993.725522 L484.25816,998.899607 C484.25816,999.104355 484.424827,999.270527 484.62908,999.270527 C484.834322,999.270527 485,999.104355 485,998.899607 L485,987.370923 C485,987.166175 484.834322,987.000003 484.62908,987.000003 L484.62908,987.000003 Z" id="Fill-121" transform="translate(474.500000, 993.135264) scale(-1, 1) translate(-474.500000, -993.135264) "></path>
        </g>
    </g>
</svg>