<?xml version="1.0" encoding="UTF-8"?>
<svg width="22px" height="22px" viewBox="0 0 22 22" version="1.1" xmlns="http://www.w3.org/2000/svg" xmlns:xlink="http://www.w3.org/1999/xlink">
    <!-- Generator: Sketch 50.2 (55047) - http://www.bohemiancoding.com/sketch -->
    <title>Fill 139</title>
    <desc>Created with Sketch.</desc>
    <defs></defs>
    <g id="Page-1" stroke="none" stroke-width="1" fill="none" fill-rule="evenodd">
        <g id="Desktop" transform="translate(-749.000000, -35.000000)" fill="#273469">
            <path d="M770.781597,56.3752742 L763.007317,48.600994 C764.35468,47.1546283 765.186921,45.2220156 765.186921,43.0944916 C765.186921,38.6311256 761.555795,35 757.092429,35 C752.630094,35 749,38.6311256 749,43.0944916 C749,47.5568263 752.630094,51.1884675 757.092429,51.1884675 C759.149826,51.1884675 761.024687,50.4103692 762.454037,49.1413831 L770.235021,56.9223665 C770.310304,56.9976497 770.409306,57.0352913 770.508309,57.0352913 C770.607311,57.0352913 770.706314,56.9976497 770.781597,56.9223665 C770.932679,56.7712845 770.932679,56.5263562 770.781597,56.3752742 L770.781597,56.3752742 Z M756.99689,50.3167452 C752.963006,50.3167452 749.680643,47.0333512 749.680643,42.9989517 C749.680643,38.9635213 752.963006,35.6806427 756.99689,35.6806427 C761.031805,35.6806427 764.315199,38.9635213 764.315199,42.9989517 C764.315199,47.0333512 761.031805,50.3167452 756.99689,50.3167452 L756.99689,50.3167452 Z" id="Fill-139"></path>
        </g>
    </g>
</svg>