<?xml version="1.0" encoding="UTF-8"?>
<svg width="22px" height="18px" viewBox="0 0 22 18" version="1.1" xmlns="http://www.w3.org/2000/svg" xmlns:xlink="http://www.w3.org/1999/xlink">
    <!-- Generator: Sketch 50.2 (55047) - http://www.bohemiancoding.com/sketch -->
    <title>Group 5</title>
    <desc>Created with Sketch.</desc>
    <defs></defs>
    <g id="Page-1" stroke="none" stroke-width="1" fill="none" fill-rule="evenodd">
        <g id="Desktop" transform="translate(-857.000000, -987.000000)" fill="#273469">
            <g id="Group-5" transform="translate(857.666667, 987.000000)">
                <path d="M13.5590886,5.04602144 C13.3915642,5.14653603 13.336352,5.36360981 13.4368666,5.53160603 C14.6269971,7.52302195 14.6269971,9.99624728 13.4368666,11.9862475 C13.336352,12.1542437 13.3915642,12.3717894 13.5590886,12.4718321 C13.6161884,12.5058089 13.6784791,12.5218534 13.740298,12.5218534 C13.8606323,12.5218534 13.9781353,12.4605065 14.0442013,12.3496101 C15.3683513,10.1359295 15.3683513,7.3842835 14.0446732,5.16824341 C13.9441586,5.00071908 13.7266129,4.94597874 13.5590886,5.04602144 L13.5590886,5.04602144 Z M10.1963327,0 C9.86411541,0 9.49933709,0.169883823 9.14116537,0.491719287 L5.09368329,4.13478349 C4.90303589,4.30655491 4.71238849,4.52551628 4.52598818,4.78600481 L1.54499899,4.78600481 C0.693220377,4.78600481 0,5.48111278 0,6.33525089 L0,11.1830745 C0,12.0343812 0.693220377,12.7271297 1.54499899,12.7271297 L4.52457248,12.7271297 C4.71002899,12.9895059 4.90067639,13.209411 5.09368329,13.3821262 L9.14163727,17.0266061 C9.49933709,17.3479697 9.86411541,17.5178535 10.1958608,17.5178535 C10.5158086,17.5178535 10.7913979,17.3640143 10.9716636,17.0846498 C11.129278,16.8402058 11.209029,16.5117638 11.209029,16.1073459 L11.209029,1.41097953 C11.209029,0.370441114 10.6856925,0 10.1963327,0 L10.1963327,0 Z M10.5011797,16.1073459 C10.5011797,16.4560796 10.4233163,16.6287949 10.3770702,16.7009955 C10.3147794,16.797263 10.2506011,16.8100043 10.1958608,16.8100043 C10.1250758,16.8100043 9.92640615,16.7798027 9.61495247,16.4999663 L5.56652659,12.8550145 C5.38059819,12.6893778 5.19278218,12.4614503 5.00779758,12.1797263 C4.94267545,12.0796836 4.83130716,12.0192805 4.71191659,12.0192805 L1.54499899,12.0192805 C1.08348127,12.0192805 0.707849262,11.6441204 0.707849262,11.1830745 L0.707849262,6.33525089 C0.707849262,5.87137368 1.08348127,5.49385407 1.54499899,5.49385407 L4.71191659,5.49385407 C4.83036336,5.49385407 4.94078785,5.43533853 5.00638188,5.33623964 C5.19419788,5.05404373 5.38295769,4.82658817 5.56747039,4.66095144 L9.61495247,1.01788724 C9.92640615,0.737578931 10.1250758,0.707849262 10.1963327,0.707849262 C10.4865509,0.707849262 10.5011797,1.29347655 10.5011797,1.41097953 L10.5011797,16.1073459 L10.5011797,16.1073459 Z M16.1998382,3.68883845 C16.031842,3.78935305 15.9771016,4.00642682 16.0776162,4.17442305 C17.7689041,7.0029887 17.7689041,10.5158086 16.0776162,13.3424867 C15.9771016,13.5104829 16.031842,13.7280286 16.1993663,13.8285432 C16.2564661,13.8625199 16.3192288,13.8785645 16.3810476,13.8785645 C16.501382,13.8785645 16.6184131,13.8172176 16.6849509,13.7063212 C18.5102582,10.655019 18.5102582,6.86377834 16.6849509,3.81106043 C16.5849082,3.6430642 16.3668906,3.58832386 16.1998382,3.68883845 L16.1998382,3.68883845 Z M18.7136469,0.960315499 C18.6079414,0.79609447 18.38898,0.749376419 18.2242871,0.854138109 C18.0600661,0.959843599 18.0124042,1.17927687 18.1181097,1.3434979 C21.0169884,5.8477787 21.0169884,11.6696029 18.1181097,16.1748275 C18.0124042,16.3390486 18.0600661,16.5584818 18.2242871,16.6637154 C18.2837464,16.7019393 18.3498124,16.7203434 18.4154064,16.7203434 C18.5319656,16.7203434 18.6456934,16.6627716 18.7136469,16.5580099 C21.7621177,11.8201389 21.7621177,5.69771466 18.7136469,0.960315499 L18.7136469,0.960315499 Z" id="Fill-130"></path>
            </g>
        </g>
    </g>
</svg>